# xmcd CD database file
#
# Track frame offsets:
#	150
#	15396
#	38001
#	61032
#	81199
#	100648
#
# Disc length: 1630 seconds
#
# Revision: 1
# Processed by: cddbd v1.5.2PL0 Copyright (c) Steve Scherf et al.
# Submitted via: jetAudio 5
#
DISCID=34065c06
DTITLE=Eric Bibb - Live à FIP - CD 1
DYEAR=1900
DGENRE=
TTITLE0=Kokomo
TTITLE1=Still Livin' On
TTITLE2=Spoken Introduction
TTITLE3=Got To Do Better
TTITLE4=Diamond Days
TTITLE5=Pockets
EXTD=
EXTT0=
EXTT1=
EXTT2=
EXTT3=
EXTT4=
EXTT5=
PLAYORDER=
